# xmcd CD database file
# Generated: Thu Dec 26 19:59:39 2002 by KSCD
# 
# Track frame offsets:
#       150
#       17875
#       31300
#       43612
#       53525
#       68437
#       80025
#       99975
#       112950
#       131662
#       143425
#       157487
#       171650
#
# Disc length: 2602 seconds
#
# Revision: 5
# Processed by: cddbd v1.4PL0 Copyright (c) Steve Scherf et al.
# Submitted via: Kscd 1.3.3
#
DISCID=ab0a280d
DTITLE=Johnny Jones - With Billy Boy Arnold
DYEAR=1900
DGENRE=
TTITLE0=The Dirty Dozens
TTITLE1=Hello, Baby
TTITLE2=Sloppy Drunk Blues
TTITLE3=Worried Life Blues
TTITLE4=I Believe I'll Give It Up
TTITLE5=Eraly In The Morning
TTITLE6=One Room Country Shack
TTITLE7=She Wants To Sell My Monkey
TTITLE8=I Hear My Black Name Ringing
TTITLE9=Ouch!
TTITLE10=Nine Below Zero
TTITLE11=I Have Got To Go
TTITLE12=Love Her With A Feeling
EXTD=
EXTT0=
EXTT1=
EXTT2=
EXTT3=
EXTT4=
EXTT5=
EXTT6=
EXTT7=
EXTT8=
EXTT9=
EXTT10=
EXTT11=
EXTT12=
PLAYORDER=
